<svg width="512" height="512" xmlns="http://www.w3.org/2000/svg" xmlns:svg="http://www.w3.org/2000/svg">
 <g class="layer">
  <title>Layer 1</title>
  <g id="svg_22">
   <rect fill="#56ff56" x="14" y="33" width="482.000015" height="450.000014" id="svg_19" opacity="0.25" stroke="#000000"/>
   <path d="m122.458,468.307l-22.16,0c-11.752,0 -21.278,-9.527 -21.278,-21.278l0,-70.962l64.717,0l0,70.962c-0.001,11.752 -9.528,21.278 -21.279,21.278z" fill="#a7a7a7" id="svg_2"/>
   <path d="m79.019,376.066l64.717,0l0,58.639l-64.717,0l0,-58.639z" fill="#8b97a5" id="svg_3"/>
   <path d="m143.875,403.8l-64.995,0c-11.539,0 -21.545,-7.981 -24.11,-19.231l-8.263,-36.235l129.74,0l-8.263,36.235c-2.564,11.25 -12.57,19.231 -24.109,19.231z" fill="#59636f" id="svg_4"/>
   <path d="m389.542,468.307l22.16,0c11.752,0 21.279,-9.527 21.279,-21.278l0,-70.962l-64.717,0l0,70.962c0,11.752 9.526,21.278 21.278,21.278z" fill="#a7a7a7" id="svg_5"/>
   <path d="m368.264,376.066l64.717,0l0,58.639l-64.717,0l0,-58.639z" fill="#8b97a5" id="svg_6"/>
   <path d="m368.125,403.8l64.995,0c11.539,0 21.544,-7.981 24.11,-19.231l8.263,-36.235l-129.74,0l8.263,36.235c2.564,11.25 12.57,19.231 24.109,19.231z" fill="#59636f" id="svg_7"/>
   <path d="m492.62,348.333l-473.24,0c-10.703,0 -19.38,-8.677 -19.38,-19.38l0,-27.105c0,-10.703 8.677,-19.38 19.38,-19.38l473.24,0c10.703,0 19.38,8.677 19.38,19.38l0,27.105c0,10.703 -8.677,19.38 -19.38,19.38z" fill="#a2ddfd" id="svg_8"/>
   <path d="m19.38,282.468c-10.703,0 -19.38,8.677 -19.38,19.38l0,27.105c0,10.703 8.677,19.38 19.38,19.38l216.781,0c-18.765,-14.089 -25.985,-49.849 -20.55,-65.865l-196.231,0z" fill="#7acefa" id="svg_9"/>
   <path d="m291.864,39.693l-39.634,0c-16.512,0 -29.898,13.386 -29.898,29.898l0,182.979c0,16.512 13.386,29.898 29.898,29.898l39.634,0c16.512,0 29.898,-13.386 29.898,-29.898l0,-182.979c0,-16.512 -13.386,-29.898 -29.898,-29.898z" fill="#b0ade2" id="svg_10"/>
   <path d="m222.331,221.599l0,30.971c0,16.512 13.386,29.898 29.898,29.898l39.634,0c16.512,0 29.898,-13.386 29.898,-29.898l0,-30.971l-99.43,0z" fill="#88d37f" id="svg_11"/>
   <path d="m343.882,111.634l-14.205,14.206c-10.553,10.553 -10.553,27.662 0,38.214l110.5,110.5c10.553,10.553 27.662,10.553 38.214,0l14.206,-14.206c10.553,-10.553 10.553,-27.662 0,-38.214l-110.5,-110.5c-10.553,-10.553 -27.663,-10.553 -38.215,0z" fill="#e7889d" id="svg_12"/>
   <path d="m153.702,84.766l-108.025,0c-11.33,0 -18.914,11.784 -14.082,22.032c7.524,15.959 11.898,29.399 11.898,41.084c0,28.31 -23.246,32.245 -23.246,79.703c0,14.536 4.068,28.14 11.147,39.782c5.692,9.361 15.834,15.101 26.79,15.101l83.012,0c10.956,0 21.098,-5.74 26.79,-15.101c7.079,-11.642 11.147,-25.246 11.147,-39.782c0,-47.458 -23.246,-51.393 -23.246,-79.703c0,-11.685 4.374,-25.125 11.898,-41.084c4.831,-10.248 -2.753,-22.032 -14.083,-22.032z" fill="#f6ee86" id="svg_13"/>
   <path d="m31.394,267.367c5.692,9.361 15.834,15.101 26.79,15.101l81.813,0c-83.39,-41.703 -73.948,-145.383 -62.586,-197.702l-31.734,0c-11.33,0 -18.914,11.784 -14.082,22.032c7.524,15.959 11.898,29.399 11.898,41.084c0,28.309 -23.246,32.245 -23.246,79.703c0,14.537 4.067,28.141 11.147,39.782z" fill="#f2d98d" id="svg_14"/>
   <path d="m164.916,175.984c-19.162,-0.413 -37.378,12.765 -65.226,12.765s-46.065,-13.177 -65.226,-12.765c-6.533,11.417 -14.217,24.315 -14.217,51.601c0,14.536 4.068,28.141 11.147,39.782c5.692,9.361 15.834,15.101 26.79,15.101l83.012,0c10.956,0 21.098,-5.74 26.79,-15.101c7.079,-11.642 11.147,-25.246 11.147,-39.782c0,-27.287 -7.685,-40.185 -14.217,-51.601z" fill="#e0b799" id="svg_15"/>
   <path d="m31.394,267.367c5.692,9.361 15.834,15.101 26.79,15.101l81.813,0c-42.718,-21.363 -61.08,-58.982 -67.293,-97.641c-14.188,-3.848 -26.024,-9.106 -38.24,-8.843c-6.533,11.417 -14.217,24.315 -14.217,51.601c0,14.537 4.067,28.141 11.147,39.782z" fill="#d99a84" id="svg_16"/>
   <path d="m356.073416,190.516468l52.412031,-52.412031l10.605,10.605l-52.412031,52.412031l-10.605,-10.605z" fill="#59636f" id="svg_17"/>
   <ellipse cx="273.461427" cy="128.477573" fill="#fff" rx="18" ry="18" transform="matrix(0.707,-0.707,0.707,0.707,-12.167,230.41) " id="svg_18"/>
   <rect fill="#FF0000" stroke="#000000" opacity="0.25" x="190" y="361" width="1" height="21" id="svg_20"/>
   <rect fill="#FF0000" stroke="#000000" stroke-width="null" stroke-dasharray="null" stroke-linejoin="null" stroke-linecap="null" opacity="0.25" x="114" y="50" width="5" height="4" id="svg_21"/>
  </g>
 </g>
</svg>