<svg width="512" height="512" xmlns="http://www.w3.org/2000/svg" xmlns:svg="http://www.w3.org/2000/svg">
 <g class="layer">
  <title>Layer 1</title>
  <g id="svg_28">
   <rect opacity="0.3" id="svg_27" height="488" width="495" y="16" x="9" stroke="#000000" fill="#00ff7f"/>
   <path id="svg_2" fill="#b2caec" d="m350.994,110.896l81.481,0l0,233.179l-81.481,0l0,-233.179z"/>
   <path id="svg_3" fill="#82aee3" d="m401.715,110.896l34.863,0l0,233.179l-34.863,0l0,-233.179z"/>
   <path id="svg_4" fill="#528fd8" d="m433.523,93.749l-83.578,0c-3.64,0 -6.591,2.951 -6.591,6.591l0,19.684c0,3.64 2.951,6.591 6.591,6.591l83.578,0c3.64,0 6.591,-2.951 6.591,-6.591l0,-19.684c0,-3.64 -2.951,-6.591 -6.591,-6.591z"/>
   <path id="svg_5" fill="#eb5569" d="m393.565,67.366c1.934,1.556 4.691,1.555 6.624,-0.002l23.777,-19.157c6.055,-4.878 10.496,-11.469 12.744,-18.913c1.947,-6.446 0.619,-13.436 -3.556,-18.719c-5.78,-7.314 -15.753,-9.831 -24.312,-6.137c-4.66,1.935 -8.438,4.463 -11.983,7.658c-3.531,-3.183 -7.308,-5.717 -11.983,-7.658c-8.559,-3.694 -18.532,-1.177 -24.312,6.137c-4.175,5.283 -5.503,12.273 -3.556,18.719c2.248,7.443 6.69,14.035 12.744,18.913l23.813,19.159z"/>
   <path id="svg_6" fill="#0473ce" d="m433.523,93.749l-34.863,0c3.64,0 6.59,2.951 6.59,6.591l0,19.684c0,3.64 -2.951,6.591 -6.59,6.591l34.863,0c3.64,0 6.59,-2.951 6.59,-6.591l0,-19.684c0.001,-3.64 -2.95,-6.591 -6.59,-6.591z"/>
   <g id="svg_7">
    <path id="svg_8" fill="#e53950" d="m433.155,10.576c-5.78,-7.314 -15.753,-9.831 -24.312,-6.137c-1.907,0.792 -3.66,1.689 -5.317,2.684c1.272,0.994 2.446,2.143 3.481,3.453c4.175,5.283 5.503,12.273 3.556,18.719c-2.248,7.443 -6.69,14.035 -12.744,18.913l-14.023,11.298l9.77,7.861c1.934,1.556 4.691,1.555 6.624,-0.002l23.777,-19.156c6.055,-4.878 10.496,-11.47 12.744,-18.913c1.947,-6.447 0.619,-13.437 -3.556,-18.72z"/>
   </g>
   <path id="svg_9" fill="#fdd1d5" d="m256,101.33l-180.578,156.203l0,241.766c0,5.495 4.454,9.949 9.949,9.949l341.258,0c5.495,0 9.949,-4.454 9.949,-9.949l0,-241.766l-180.578,-156.203z"/>
   <path id="svg_10" fill="#f6b2bb" d="m407.376,261.139l0,238.16c0,5.495 -4.454,9.949 -9.949,9.949l29.202,0c5.495,0 9.949,-4.454 9.949,-9.949l0,-212.9l-29.202,-25.26z"/>
   <path id="svg_11" fill="#c0d6f2" d="m392.247,437.504l-101.467,0c-3.962,0 -7.174,-3.212 -7.174,-7.174l0,-79.08c0,-3.962 3.212,-7.174 7.174,-7.174l101.467,0c3.962,0 7.174,3.212 7.174,7.174l0,79.08c0,3.962 -3.212,7.174 -7.174,7.174z"/>
   <path id="svg_12" fill="#528fd8" d="m246.708,509.248l-101.332,0l0,-156.974c0,-3.962 3.212,-7.174 7.174,-7.174l86.983,0c3.962,0 7.174,3.212 7.174,7.174l0,156.974l0.001,0z"/>
   <g id="svg_13">
    <path id="svg_14" fill="#528fd8" d="m341.513,445.191c-4.245,0 -7.687,-3.442 -7.687,-7.687l0,-93.429c0,-4.245 3.442,-7.687 7.687,-7.687s7.687,3.442 7.687,7.687l0,93.429c0,4.245 -3.441,7.687 -7.687,7.687z"/>
   </g>
   <g id="svg_15">
    <path id="svg_16" fill="#528fd8" d="m399.421,398.476l-115.816,0c-4.245,0 -7.687,-3.442 -7.687,-7.687s3.442,-7.687 7.687,-7.687l115.816,0c4.245,0 7.687,3.442 7.687,7.687s-3.442,7.687 -7.687,7.687z"/>
   </g>
   <g id="svg_17">
    <path id="svg_18" fill="#0055a3" d="m170.762,450.485c-4.245,0 -7.687,-3.442 -7.687,-7.687l0,-16.399c0,-4.245 3.442,-7.687 7.687,-7.687s7.687,3.442 7.687,7.687l0,16.399c0,4.245 -3.442,7.687 -7.687,7.687z"/>
   </g>
   <g id="svg_19">
    <path id="svg_20" fill="#528fd8" d="m392.247,445.191l-101.467,0c-8.194,0 -14.861,-6.667 -14.861,-14.861l0,-79.08c0,-8.194 6.667,-14.861 14.861,-14.861l101.467,0c8.194,0 14.861,6.667 14.861,14.861l0,79.08c0,8.194 -6.667,14.861 -14.861,14.861zm-100.955,-15.374l100.442,0l0,-78.055l-100.442,0l0,78.055z"/>
   </g>
   <g id="svg_21">
    <path id="svg_22" fill="#0473ce" d="m392.247,336.388l-29.053,0c8.194,0 14.861,6.667 14.861,14.861l0,0.512l13.679,0l0,78.055l-13.679,0l0,0.512c0,8.194 -6.667,14.861 -14.861,14.861l29.053,0c8.194,0 14.861,-6.667 14.861,-14.861l0,-79.08c0,-8.193 -6.667,-14.86 -14.861,-14.86z"/>
   </g>
   <path id="svg_23" fill="#0473ce" d="m399.421,383.103l-29.053,0c4.245,0 7.687,3.442 7.687,7.687s-3.442,7.687 -7.687,7.687l29.053,0c4.245,0 7.687,-3.442 7.687,-7.687s-3.442,-7.687 -7.687,-7.687z"/>
   <path id="svg_24" fill="#f6b2bb" d="m436.578,331.299l0,-65.034l-185.625,-160.569l-175.531,151.837l0,13.155l141.513,-122.411c2.31,-1.998 5.736,-1.998 8.046,0l211.286,182.765c0.102,0.089 0.208,0.17 0.311,0.257z"/>
   <g id="svg_25">
    <path id="svg_26" fill="#e53950" d="m471.309,331.043l-211.286,-182.766c-2.31,-1.998 -5.736,-1.998 -8.046,0l-211.286,182.766c-10.275,8.888 -25.808,7.763 -34.696,-2.511c-8.888,-10.275 -7.763,-25.808 2.511,-34.696l236.766,-204.806c6.16,-5.328 15.297,-5.328 21.457,0l236.766,204.806c10.275,8.888 11.399,24.422 2.511,34.696s-24.422,11.398 -34.697,2.511z"/>
   </g>
  </g>
 </g>
</svg>