<svg width="512" height="512" xmlns="http://www.w3.org/2000/svg" xmlns:svg="http://www.w3.org/2000/svg">
 <g class="layer">
  <title>Layer 1</title>
  <g id="svg_3">
   <rect opacity="0.3" id="svg_2" height="493" width="492" y="5" x="9" stroke="#000000" fill="#00ff7f"/>
   <path fill="#e3b692" d="m209.131,116.781c-0.518,0 -1.043,-0.063 -1.567,-0.196c-6.46,-1.641 -15.334,-4.762 -17.804,-12.874c-2.682,-8.813 4.021,-17.648 9.295,-23.527c2.339,-2.606 6.346,-2.825 8.954,-0.486c2.606,2.338 2.823,6.347 0.485,8.954c-7.428,8.279 -6.64,11.246 -6.603,11.367c0.068,0.227 0.9,2.27 8.796,4.275c3.393,0.863 5.446,4.313 4.583,7.708c-0.728,2.869 -3.308,4.779 -6.139,4.779z" id="XMLID_242_"/>
   <path fill="#e3b692" d="m302.891,115.513c-2.83,0 -5.409,-1.909 -6.141,-4.777c-0.862,-3.394 1.188,-6.845 4.581,-7.709c7.885,-2.007 8.715,-4.048 8.783,-4.274c0.037,-0.122 0.822,-3.088 -6.619,-11.363c-2.342,-2.604 -2.129,-6.613 0.474,-8.955c2.605,-2.341 6.615,-2.128 8.955,0.474c5.284,5.876 12,14.707 9.325,23.524c-2.461,8.115 -11.332,11.238 -17.79,12.882c-0.524,0.135 -1.051,0.198 -1.568,0.198z" id="XMLID_241_"/>
   <path fill="#424852" d="m364.854,279.175l9.637,-5.58l18.971,32.845l-27.859,15.953c2.296,6.403 4.794,15.876 5.985,22.217l32.781,0l0,38.043l-32.781,0c-1.191,6.341 -3.689,16.118 -5.998,22.534l27.872,16.156l-18.971,32.845l-27.859,-16.067c-4.362,5.211 -11.198,12.047 -16.409,16.409l16.092,27.873l-32.818,18.959l-16.094,-27.862c-6.404,2.296 -16.041,4.806 -22.382,5.986l0,32.514l-38.043,0l0,-32.514c-6.341,-1.181 -15.991,-3.652 -22.396,-5.986l-16.066,27.861l-32.831,-18.959l16.117,-27.86c-5.212,-4.4 -12.047,-11.197 -16.435,-16.409l-27.873,16.093l-18.933,-32.832l27.872,-16.207c-2.346,-6.416 -4.844,-16.193 -6.023,-22.534l-32.78,0l0,-38.043l32.78,0c1.217,-6.341 3.678,-15.813 6.023,-22.217l-27.872,-16.042l18.933,-32.794l9.675,5.605l18.198,10.538c4.388,-5.237 11.223,-12.047 16.435,-16.41l-16.117,-27.885l32.843,-18.946l16.094,27.873c3.969,-1.445 9.181,-2.954 14.088,-4.172c0.025,0 0.063,-0.013 0.102,-0.025c2.548,-0.621 5.11,-1.18 7.165,-1.61c0.342,-0.076 0.672,-0.14 1.002,-0.203l0,-31.792l2.282,0l33.479,0l2.282,0l0,31.791l0,0.038c2.207,0.419 5.225,1.053 8.18,1.775c0.443,0.114 0.887,0.229 1.344,0.343c4.527,1.154 9.22,2.523 12.858,3.854l16.118,-27.873l32.793,18.946l-16.092,27.897c5.224,4.363 12.047,11.186 16.409,16.422l18.222,-10.548zm-23.612,84.748c0,-47.11 -38.157,-85.255 -85.229,-85.255c-47.098,0 -85.255,38.145 -85.255,85.255c0,47.071 38.157,85.23 85.255,85.23c47.072,0 85.229,-38.159 85.229,-85.23z" id="XMLID_238_"/>
   <path fill="#f76c82" d="m351.464,203.494l13.391,75.681l-18.223,10.55c-4.362,-5.236 -11.186,-12.059 -16.409,-16.422l16.092,-27.897l-32.793,-18.946l-16.118,27.873c-3.639,-1.331 -8.331,-2.7 -12.858,-3.854l14.406,-19.973l-7.052,-15.04l20.975,-31.082l38.589,19.11z" id="XMLID_237_"/>
   <path fill="#9ed26a" d="m256.013,278.668c47.072,0 85.229,38.145 85.229,85.255c0,47.071 -38.157,85.23 -85.229,85.23c-47.098,0 -85.255,-38.159 -85.255,-85.23c0,-47.11 38.157,-85.255 85.255,-85.255z" id="XMLID_236_"/>
   <path fill="#636c77" d="m317.339,61.39c0,6.492 -1.383,11.768 -2.88,16.472c-0.164,0.545 -0.342,1.078 -0.52,1.611c-33.402,-60.299 -53.097,0.596 -116.806,-3.729c-1.356,-4.375 -2.55,-9.003 -2.55,-14.354c0,-33.897 27.468,-61.39 61.365,-61.39s61.391,27.493 61.391,61.39z" id="XMLID_235_"/>
   <path fill="#eb5463" d="m312.874,184.383l-20.975,31.082l7.052,15.04l-14.406,19.973c-0.457,-0.114 -0.9,-0.229 -1.344,-0.343c-2.955,-0.735 -5.796,-1.369 -8.18,-1.813l0,-31.792l-2.282,0l10.537,-46.604l19.833,9.625l9.765,4.832z" id="XMLID_234_"/>
   <path fill="#efc7a4" d="m313.939,79.473c-1.571,4.819 -3.106,9.092 -3.106,13.543c0,3.792 -0.381,7.482 -1.115,11.058c-3.932,19.199 -17.881,34.747 -36.155,40.947c-5.528,1.864 -11.451,2.879 -17.613,2.879c-6.15,0 -12.06,-1.015 -17.589,-2.879c-18.248,-6.188 -32.197,-21.723 -36.142,-40.922c-0.735,-3.576 -1.115,-7.292 -1.115,-11.083c0,-5.25 -1.636,-10.018 -3.26,-15.053c-0.24,-0.735 -0.47,-1.471 -0.71,-2.219c63.709,4.325 83.403,-56.57 116.805,3.729z" id="XMLID_233_"/>
   <path fill="#d94452" d="m283.276,169.724l19.833,9.828l-19.833,-9.625l-10.537,46.604l-33.479,0l-10.513,-46.604l-19.061,9.245l19.061,-9.448c18.173,7.812 36.333,7.723 54.529,0z" id="XMLID_232_"/>
   <path fill="#e3b692" d="m273.854,145.82l9.422,23.903c-18.196,7.724 -36.356,7.812 -54.528,0l9.409,-23.903l0.203,-0.799c5.529,1.864 11.438,2.879 17.589,2.879c6.162,0 12.085,-1.015 17.613,-2.879l0.292,0.799z" id="XMLID_228_"/>
   <path fill="#eb5463" d="m228.748,169.927l10.513,46.604l-2.282,0l0,31.791c-0.33,0.063 -0.66,0.127 -1.002,0.203c-2.156,0.419 -4.617,0.977 -7.165,1.61c-0.038,0.013 -0.076,0.025 -0.102,0.025c-0.432,0.102 -0.85,0.203 -1.281,0.317l-14.355,-19.973l7.025,-15.04l-20.961,-31.068l10.55,-5.225l19.06,-9.244z" id="XMLID_227_"/>
   <path fill="#f76c82" d="m227.429,250.478c0.432,-0.114 0.85,-0.216 1.281,-0.317c-4.907,1.218 -10.119,2.727 -14.088,4.172l-16.094,-27.873l-32.843,18.946l16.117,27.885c-5.212,4.363 -12.047,11.173 -16.435,16.41l-18.198,-10.538l13.393,-75.668l38.575,-19.098l20.961,31.068l-7.025,15.04l14.356,19.973z" id="XMLID_226_"/>
   <path fill="#fbd277" d="m128.199,25.501c8.813,0 15.991,7.178 15.991,15.966c0,8.775 -7.178,15.953 -15.991,15.953c-8.775,0 -15.953,-7.177 -15.953,-15.953c0,-8.788 7.178,-15.966 15.953,-15.966z" id="XMLID_225_"/>
   <path fill="#fff" d="m282.277,377.623c-0.698,-5.021 -4.377,-14.335 -21.16,-20.308c-13.233,-4.705 -17.343,-10.95 -16.876,-14.002c0.405,-2.646 4.639,-5.471 11.949,-5.747c4.639,-0.181 9.797,0.622 15.352,2.374c3.34,1.057 6.9,-0.801 7.954,-4.14c1.053,-3.34 -0.97,-6.9 -4.311,-7.954c-4.496,-1.418 -9.186,-2.326 -13.186,-2.733l0,-10.938c0,-3.502 -2.498,-6.341 -6,-6.341s-6,2.839 -6,6.341l0,11.434c-11,1.975 -16.901,7.801 -18.123,15.787c-1.33,8.675 4.499,20.553 25.075,27.867c7.539,2.683 12.3,6.461 12.807,10.108c0.32,2.303 -1.231,4.905 -4.115,6.957c-5.178,3.686 -15.324,5.897 -26.847,0.011c-3.117,-1.592 -6.944,-0.354 -8.537,2.764c-1.593,3.119 -0.188,6.938 2.93,8.531c5.378,2.745 11.811,4.331 16.811,4.806l0,11.916c0,3.502 2.498,6.341 6,6.341s6,-2.839 6,-6.341l0,-12.884c4,-0.975 7.648,-2.565 10.805,-4.812c6.808,-4.845 10.457,-11.962 9.472,-19.037z" id="XMLID_224_"/>
   <g id="svg_1" fill="#d94452">
    <path d="m158.964,165.362c-1.623,0 -3.244,-0.619 -4.482,-1.855l-31.943,-31.918c-2.477,-2.476 -2.478,-6.49 -0.003,-8.967c2.476,-2.477 6.489,-2.477 8.967,-0.004l31.943,31.918c2.477,2.476 2.478,6.49 0.003,8.967c-1.239,1.239 -2.862,1.859 -4.485,1.859z" id="XMLID_219_"/>
    <path d="m127.021,165.362c-1.625,0 -3.248,-0.621 -4.487,-1.861c-2.474,-2.478 -2.472,-6.493 0.007,-8.967l31.94,-31.915c2.475,-2.476 6.491,-2.476 8.966,0c2.477,2.476 2.477,6.491 0,8.967l-31.945,31.921c-1.239,1.237 -2.86,1.855 -4.481,1.855z" id="XMLID_218_"/>
    <path d="m390.42,112.545l-32.972,0c-3.502,0 -6.34,-2.839 -6.34,-6.341c0,-3.501 2.838,-6.34 6.34,-6.34l32.972,0c3.502,0 6.341,2.839 6.341,6.34c0,3.502 -2.839,6.341 -6.341,6.341z" id="XMLID_217_"/>
    <path d="m373.935,129.03c-3.503,0 -6.341,-2.839 -6.341,-6.34l0,-32.971c0,-3.501 2.838,-6.34 6.341,-6.34c3.502,0 6.34,2.839 6.34,6.34l0,32.971c-0.001,3.501 -2.838,6.34 -6.34,6.34z" id="XMLID_216_"/>
   </g>
  </g>
 </g>
</svg>