<svg enable-background="new 0 0 512 512" height="512" viewBox="0 0 512 512" width="512" xmlns="http://www.w3.org/2000/svg"><g id="_x36__x2C__coin_x2C__dollar_x2C__money_x2C__user"><g id="XMLID_215_"><path id="XMLID_242_" d="m209.131 116.781c-.518 0-1.043-.063-1.567-.196-6.46-1.641-15.334-4.762-17.804-12.874-2.682-8.813 4.021-17.648 9.295-23.527 2.339-2.606 6.346-2.825 8.954-.486 2.606 2.338 2.823 6.347.485 8.954-7.428 8.279-6.64 11.246-6.603 11.367.068.227.9 2.27 8.796 4.275 3.393.863 5.446 4.313 4.583 7.708-.728 2.869-3.308 4.779-6.139 4.779z" fill="#e3b692"/><path id="XMLID_241_" d="m302.891 115.513c-2.83 0-5.409-1.909-6.141-4.777-.862-3.394 1.188-6.845 4.581-7.709 7.885-2.007 8.715-4.048 8.783-4.274.037-.122.822-3.088-6.619-11.363-2.342-2.604-2.129-6.613.474-8.955 2.605-2.341 6.615-2.128 8.955.474 5.284 5.876 12 14.707 9.325 23.524-2.461 8.115-11.332 11.238-17.79 12.882-.524.135-1.051.198-1.568.198z" fill="#e3b692"/><path id="XMLID_238_" d="m364.854 279.175 9.637-5.58 18.971 32.845-27.859 15.953c2.296 6.403 4.794 15.876 5.985 22.217h32.781v38.043h-32.781c-1.191 6.341-3.689 16.118-5.998 22.534l27.872 16.156-18.971 32.845-27.859-16.067c-4.362 5.211-11.198 12.047-16.409 16.409l16.092 27.873-32.818 18.959-16.094-27.862c-6.404 2.296-16.041 4.806-22.382 5.986v32.514h-38.043v-32.514c-6.341-1.181-15.991-3.652-22.396-5.986l-16.066 27.861-32.831-18.959 16.117-27.86c-5.212-4.4-12.047-11.197-16.435-16.409l-27.873 16.093-18.933-32.832 27.872-16.207c-2.346-6.416-4.844-16.193-6.023-22.534h-32.78v-38.043h32.78c1.217-6.341 3.678-15.813 6.023-22.217l-27.872-16.042 18.933-32.794 9.675 5.605 18.198 10.538c4.388-5.237 11.223-12.047 16.435-16.41l-16.117-27.885 32.843-18.946 16.094 27.873c3.969-1.445 9.181-2.954 14.088-4.172.025 0 .063-.013.102-.025 2.548-.621 5.11-1.18 7.165-1.61.342-.076.672-.14 1.002-.203v-31.792h2.282 33.479 2.282v31.791.038c2.207.419 5.225 1.053 8.18 1.775.443.114.887.229 1.344.343 4.527 1.154 9.22 2.523 12.858 3.854l16.118-27.873 32.793 18.946-16.092 27.897c5.224 4.363 12.047 11.186 16.409 16.422zm-23.612 84.748c0-47.11-38.157-85.255-85.229-85.255-47.098 0-85.255 38.145-85.255 85.255 0 47.071 38.157 85.23 85.255 85.23 47.072 0 85.229-38.159 85.229-85.23z" fill="#424852"/><path id="XMLID_237_" d="m351.464 203.494 13.391 75.681-18.223 10.55c-4.362-5.236-11.186-12.059-16.409-16.422l16.092-27.897-32.793-18.946-16.118 27.873c-3.639-1.331-8.331-2.7-12.858-3.854l14.406-19.973-7.052-15.04 20.975-31.082z" fill="#f76c82"/><path id="XMLID_236_" d="m256.013 278.668c47.072 0 85.229 38.145 85.229 85.255 0 47.071-38.157 85.23-85.229 85.23-47.098 0-85.255-38.159-85.255-85.23 0-47.11 38.157-85.255 85.255-85.255z" fill="#9ed26a"/><path id="XMLID_235_" d="m317.339 61.39c0 6.492-1.383 11.768-2.88 16.472-.164.545-.342 1.078-.52 1.611-33.402-60.299-53.097.596-116.806-3.729-1.356-4.375-2.55-9.003-2.55-14.354 0-33.897 27.468-61.39 61.365-61.39s61.391 27.493 61.391 61.39z" fill="#636c77"/><path id="XMLID_234_" d="m312.874 184.383-20.975 31.082 7.052 15.04-14.406 19.973c-.457-.114-.9-.229-1.344-.343-2.955-.735-5.796-1.369-8.18-1.813v-31.792h-2.282l10.537-46.604 19.833 9.625z" fill="#eb5463"/><path id="XMLID_233_" d="m313.939 79.473c-1.571 4.819-3.106 9.092-3.106 13.543 0 3.792-.381 7.482-1.115 11.058-3.932 19.199-17.881 34.747-36.155 40.947-5.528 1.864-11.451 2.879-17.613 2.879-6.15 0-12.06-1.015-17.589-2.879-18.248-6.188-32.197-21.723-36.142-40.922-.735-3.576-1.115-7.292-1.115-11.083 0-5.25-1.636-10.018-3.26-15.053-.24-.735-.47-1.471-.71-2.219 63.709 4.325 83.403-56.57 116.805 3.729z" fill="#efc7a4"/><path id="XMLID_232_" d="m283.276 169.724 19.833 9.828-19.833-9.625-10.537 46.604h-33.479l-10.513-46.604-19.061 9.245 19.061-9.448c18.173 7.812 36.333 7.723 54.529 0z" fill="#d94452"/><path id="XMLID_228_" d="m273.854 145.82 9.422 23.903c-18.196 7.724-36.356 7.812-54.528 0l9.409-23.903.203-.799c5.529 1.864 11.438 2.879 17.589 2.879 6.162 0 12.085-1.015 17.613-2.879z" fill="#e3b692"/><path id="XMLID_227_" d="m228.748 169.927 10.513 46.604h-2.282v31.791c-.33.063-.66.127-1.002.203-2.156.419-4.617.977-7.165 1.61-.038.013-.076.025-.102.025-.432.102-.85.203-1.281.317l-14.355-19.973 7.025-15.04-20.961-31.068 10.55-5.225z" fill="#eb5463"/><path id="XMLID_226_" d="m227.429 250.478c.432-.114.85-.216 1.281-.317-4.907 1.218-10.119 2.727-14.088 4.172l-16.094-27.873-32.843 18.946 16.117 27.885c-5.212 4.363-12.047 11.173-16.435 16.41l-18.198-10.538 13.393-75.668 38.575-19.098 20.961 31.068-7.025 15.04z" fill="#f76c82"/><path id="XMLID_225_" d="m128.199 25.501c8.813 0 15.991 7.178 15.991 15.966 0 8.775-7.178 15.953-15.991 15.953-8.775 0-15.953-7.177-15.953-15.953 0-8.788 7.178-15.966 15.953-15.966z" fill="#fbd277"/><path id="XMLID_224_" d="m282.277 377.623c-.698-5.021-4.377-14.335-21.16-20.308-13.233-4.705-17.343-10.95-16.876-14.002.405-2.646 4.639-5.471 11.949-5.747 4.639-.181 9.797.622 15.352 2.374 3.34 1.057 6.9-.801 7.954-4.14 1.053-3.34-.97-6.9-4.311-7.954-4.496-1.418-9.186-2.326-13.186-2.733v-10.938c0-3.502-2.498-6.341-6-6.341s-6 2.839-6 6.341v11.434c-11 1.975-16.901 7.801-18.123 15.787-1.33 8.675 4.499 20.553 25.075 27.867 7.539 2.683 12.3 6.461 12.807 10.108.32 2.303-1.231 4.905-4.115 6.957-5.178 3.686-15.324 5.897-26.847.011-3.117-1.592-6.944-.354-8.537 2.764-1.593 3.119-.188 6.938 2.93 8.531 5.378 2.745 11.811 4.331 16.811 4.806v11.916c0 3.502 2.498 6.341 6 6.341s6-2.839 6-6.341v-12.884c4-.975 7.648-2.565 10.805-4.812 6.808-4.845 10.457-11.962 9.472-19.037z" fill="#fff"/><g fill="#d94452"><path id="XMLID_219_" d="m158.964 165.362c-1.623 0-3.244-.619-4.482-1.855l-31.943-31.918c-2.477-2.476-2.478-6.49-.003-8.967 2.476-2.477 6.489-2.477 8.967-.004l31.943 31.918c2.477 2.476 2.478 6.49.003 8.967-1.239 1.239-2.862 1.859-4.485 1.859z"/><path id="XMLID_218_" d="m127.021 165.362c-1.625 0-3.248-.621-4.487-1.861-2.474-2.478-2.472-6.493.007-8.967l31.94-31.915c2.475-2.476 6.491-2.476 8.966 0 2.477 2.476 2.477 6.491 0 8.967l-31.945 31.921c-1.239 1.237-2.86 1.855-4.481 1.855z"/><path id="XMLID_217_" d="m390.42 112.545h-32.972c-3.502 0-6.34-2.839-6.34-6.341 0-3.501 2.838-6.34 6.34-6.34h32.972c3.502 0 6.341 2.839 6.341 6.34 0 3.502-2.839 6.341-6.341 6.341z"/><path id="XMLID_216_" d="m373.935 129.03c-3.503 0-6.341-2.839-6.341-6.34v-32.971c0-3.501 2.838-6.34 6.341-6.34 3.502 0 6.34 2.839 6.34 6.34v32.971c-.001 3.501-2.838 6.34-6.34 6.34z"/></g></g></g></svg>