<svg id="Capa_1" enable-background="new 0 0 512 512" height="512" viewBox="0 0 512 512" width="512" xmlns="http://www.w3.org/2000/svg"><g><g><path d="m451 512h-390v-392h390z" fill="#ff5959"/></g><path d="m256 120h195v392h-195z" fill="#e63a57"/><g id="Shopping_Bag_1_"><path d="m361 180v-75c0-57.891-47.109-105-105-105s-105 47.109-105 105v75h-30v30c29.086 0 93.704 0 90 0v-30h-30v-75c0-41.353 33.633-75 75-75s75 33.647 75 75v75h-30v30c29.086 0 93.704 0 90 0v-30z" fill="#ffdf40"/></g><g id="Sale_29_"><g><path d="m156.149 330.002h199.702v29.997h-199.702z" fill="#f3f5f9" transform="matrix(.707 -.707 .707 .707 -168.971 282.068)"/></g><path d="m316 360c-24.814 0-45 20.186-45 45s20.186 45 45 45 45-20.186 45-45-20.186-45-45-45zm0 60c-8.271 0-15-6.729-15-15s6.729-15 15-15 15 6.729 15 15-6.729 15-15 15z" fill="#e1e6f0"/><path d="m196 240c-24.814 0-45 20.186-45 45s20.186 45 45 45 45-20.186 45-45-20.186-45-45-45zm0 60c-8.271 0-15-6.729-15-15s6.729-15 15-15 15 6.729 15 15-6.729 15-15 15z" fill="#f3f5f9"/></g><path d="m256 366.211 81.211-81.211-21.211-21.211-60 60z" fill="#e1e6f0"/><path d="m331 105v75h-30v30c29.084 0 93.706 0 90 0v-30h-30v-75c0-57.891-47.109-105-105-105v30c41.367 0 75 33.647 75 75z" fill="#ffbe40"/></g></svg>