<svg width="512" height="512" xmlns="http://www.w3.org/2000/svg" xmlns:svg="http://www.w3.org/2000/svg">
 <g class="layer">
  <title>Layer 1</title>
  <g id="svg_13">
   <rect opacity="0.3" id="svg_12" height="492" width="491" y="13" x="10" stroke="#000000" fill="#00ff7f"/>
   <g id="svg_2">
    <path id="svg_3" fill="#ff5959" d="m451,512l-390,0l0,-392l390,0l0,392z"/>
   </g>
   <path id="svg_4" fill="#e63a57" d="m256,120l195,0l0,392l-195,0l0,-392z"/>
   <g id="Shopping_Bag_1_">
    <path id="svg_5" fill="#ffdf40" d="m361,180l0,-75c0,-57.891 -47.109,-105 -105,-105s-105,47.109 -105,105l0,75l-30,0l0,30c29.086,0 93.704,0 90,0l0,-30l-30,0l0,-75c0,-41.353 33.633,-75 75,-75s75,33.647 75,75l0,75l-30,0l0,30c29.086,0 93.704,0 90,0l0,-30l-30,0z"/>
   </g>
   <g id="Sale_29_">
    <g id="svg_6">
     <path id="svg_7" transform="matrix(.707 -.707 .707 .707 -168.971 282.068)" fill="#f3f5f9" d="m156.149,330.002l199.702,0l0,29.997l-199.702,0l0,-29.997z"/>
    </g>
    <path id="svg_8" fill="#e1e6f0" d="m316,360c-24.814,0 -45,20.186 -45,45s20.186,45 45,45s45,-20.186 45,-45s-20.186,-45 -45,-45zm0,60c-8.271,0 -15,-6.729 -15,-15s6.729,-15 15,-15s15,6.729 15,15s-6.729,15 -15,15z"/>
    <path id="svg_9" fill="#f3f5f9" d="m196,240c-24.814,0 -45,20.186 -45,45s20.186,45 45,45s45,-20.186 45,-45s-20.186,-45 -45,-45zm0,60c-8.271,0 -15,-6.729 -15,-15s6.729,-15 15,-15s15,6.729 15,15s-6.729,15 -15,15z"/>
   </g>
   <path id="svg_10" fill="#e1e6f0" d="m256,366.211l81.211,-81.211l-21.211,-21.211l-60,60l0,42.422z"/>
   <path id="svg_11" fill="#ffbe40" d="m331,105l0,75l-30,0l0,30c29.084,0 93.706,0 90,0l0,-30l-30,0l0,-75c0,-57.891 -47.109,-105 -105,-105l0,30c41.367,0 75,33.647 75,75z"/>
  </g>
 </g>
</svg>